<svg width="512" height="512" viewBox="0 0 512 512" fill="none" xmlns="http://www.w3.org/2000/svg">
<path d="M474.045 173.813C469.844 175.184 467.551 179.701 468.922 183.901C476.493 207.1 480.333 231.358 480.333 256.001C480.333 318.015 456.184 376.316 412.333 420.167C368.482 464.018 310.18 488.167 248.166 488.167C186.152 488.167 127.85 464.018 83.999 420.167C40.148 376.316 16 318.014 16 256C16 193.986 40.149 135.684 84 91.833C127.851 47.982 186.153 23.833 248.167 23.833C281.056 23.833 312.835 30.567 342.622 43.85C371.403 56.684 396.909 74.958 418.432 98.165C421.436 101.404 426.498 101.596 429.738 98.59C432.978 95.586 433.168 90.525 430.164 87.284C407.164 62.485 379.904 42.956 349.14 29.237C317.287 15.035 283.316 7.83301 248.167 7.83301C181.879 7.83301 119.559 33.646 72.687 80.52C25.814 127.392 0 189.712 0 256C0 322.287 25.814 384.607 72.687 431.479C119.559 478.352 181.879 504.166 248.167 504.166C314.455 504.166 376.775 478.353 423.647 431.479C470.52 384.607 496.334 322.287 496.334 256C496.334 229.668 492.229 203.74 484.133 178.936C482.762 174.736 478.245 172.445 474.045 173.813Z" fill="#204256"/>
<path d="M504.969 83.2616C500.437 78.7236 494.406 76.2246 487.989 76.2246C481.572 76.2246 475.541 78.7236 471.011 83.2586L463.85 90.4196C460.726 93.5436 460.726 98.6086 463.85 101.733C466.974 104.856 472.04 104.857 475.164 101.732L482.328 94.5676C483.838 93.0556 485.848 92.2236 487.988 92.2236C490.128 92.2236 492.138 93.0556 493.652 94.5716C495.166 96.0856 496 98.0956 496 100.235C496 102.374 495.166 104.384 493.652 105.898L217.802 381.75C216.292 383.262 214.282 384.094 212.142 384.094C210.002 384.094 207.992 383.262 206.478 381.746L98.747 274.015C97.233 272.501 96.399 270.491 96.399 268.352C96.399 266.214 97.233 264.203 98.75 262.685C100.26 261.173 102.27 260.341 104.41 260.341C106.55 260.341 108.56 261.173 110.074 262.689L206.485 359.1C207.985 360.6 210.02 361.443 212.142 361.443C214.264 361.443 216.299 360.6 217.799 359.1L452.648 124.251C455.773 121.126 455.773 116.062 452.648 112.937C449.524 109.814 444.459 109.814 441.335 112.937L212.142 342.129L121.392 251.378C116.859 246.84 110.829 244.341 104.412 244.341C97.995 244.341 91.964 246.84 87.434 251.375C82.898 255.911 80.4 261.94 80.4 268.352C80.4 274.764 82.898 280.793 87.434 285.33L195.162 393.058C199.694 397.596 205.725 400.095 212.142 400.095C218.559 400.095 224.59 397.596 229.119 393.062L504.966 117.214C509.502 112.678 512 106.649 512 100.236C512 93.8226 509.502 87.7936 504.969 83.2616Z" fill="#204256"/>
</svg>
